<mxfile host="app.diagrams.net" modified="2021-03-25T03:27:54.737Z" agent="5.0 (Windows NT 10.0; WOW64) AppleWebKit/537.36 (KHTML, like Gecko) Chrome/83.0.4103.61 Safari/537.36" etag="E0vB5RlS1BC7f_MRO2fB" version="14.5.1" type="github">
  <diagram id="R2lEEEUBdFMjLlhIrx00" name="Page-1">
    <mxGraphModel dx="1772" dy="573" grid="1" gridSize="10" guides="1" tooltips="1" connect="1" arrows="1" fold="1" page="1" pageScale="1" pageWidth="850" pageHeight="1100" math="0" shadow="0" extFonts="Permanent Marker^https://fonts.googleapis.com/css?family=Permanent+Marker">
      <root>
        <mxCell id="0" />
        <mxCell id="1" parent="0" />
        <mxCell id="LJhHwREd3p5r8z2Calfl-1" value="VISITOR" style="rounded=0;whiteSpace=wrap;html=1;" vertex="1" parent="1">
          <mxGeometry x="-60" y="80" width="120" height="60" as="geometry" />
        </mxCell>
        <mxCell id="LJhHwREd3p5r8z2Calfl-2" value="" style="rhombus;whiteSpace=wrap;html=1;" vertex="1" parent="1">
          <mxGeometry x="100" y="70" width="130" height="80" as="geometry" />
        </mxCell>
        <mxCell id="LJhHwREd3p5r8z2Calfl-3" value="ENTRIES" style="rounded=0;whiteSpace=wrap;html=1;" vertex="1" parent="1">
          <mxGeometry x="270" y="80" width="120" height="60" as="geometry" />
        </mxCell>
        <mxCell id="LJhHwREd3p5r8z2Calfl-12" value="" style="endArrow=none;html=1;entryX=0;entryY=0.5;entryDx=0;entryDy=0;" edge="1" parent="1" target="LJhHwREd3p5r8z2Calfl-2">
          <mxGeometry width="50" height="50" relative="1" as="geometry">
            <mxPoint x="60" y="109.66" as="sourcePoint" />
            <mxPoint x="130" y="109.66" as="targetPoint" />
          </mxGeometry>
        </mxCell>
        <mxCell id="LJhHwREd3p5r8z2Calfl-13" value="" style="endArrow=none;html=1;entryX=0;entryY=0.5;entryDx=0;entryDy=0;" edge="1" parent="1">
          <mxGeometry width="50" height="50" relative="1" as="geometry">
            <mxPoint x="230" y="109.66000000000008" as="sourcePoint" />
            <mxPoint x="270" y="110" as="targetPoint" />
          </mxGeometry>
        </mxCell>
        <mxCell id="LJhHwREd3p5r8z2Calfl-14" value="POST" style="text;html=1;strokeColor=none;fillColor=none;align=center;verticalAlign=middle;whiteSpace=wrap;rounded=0;" vertex="1" parent="1">
          <mxGeometry x="145" y="100" width="40" height="20" as="geometry" />
        </mxCell>
        <mxCell id="LJhHwREd3p5r8z2Calfl-15" value="NAME" style="ellipse;whiteSpace=wrap;html=1;" vertex="1" parent="1">
          <mxGeometry x="240" y="20" width="80" height="30" as="geometry" />
        </mxCell>
        <mxCell id="LJhHwREd3p5r8z2Calfl-16" value="EMAIL" style="ellipse;whiteSpace=wrap;html=1;" vertex="1" parent="1">
          <mxGeometry x="330" y="20" width="90" height="30" as="geometry" />
        </mxCell>
        <mxCell id="LJhHwREd3p5r8z2Calfl-17" value="PHONE_NO" style="ellipse;whiteSpace=wrap;html=1;" vertex="1" parent="1">
          <mxGeometry x="240" y="170" width="80" height="30" as="geometry" />
        </mxCell>
        <mxCell id="LJhHwREd3p5r8z2Calfl-20" value="" style="endArrow=none;html=1;" edge="1" parent="1">
          <mxGeometry width="50" height="50" relative="1" as="geometry">
            <mxPoint x="330" y="80" as="sourcePoint" />
            <mxPoint x="370" y="50" as="targetPoint" />
          </mxGeometry>
        </mxCell>
        <mxCell id="LJhHwREd3p5r8z2Calfl-21" value="" style="endArrow=none;html=1;exitX=0.578;exitY=-0.001;exitDx=0;exitDy=0;exitPerimeter=0;" edge="1" parent="1">
          <mxGeometry width="50" height="50" relative="1" as="geometry">
            <mxPoint x="329.3599999999999" y="79.94000000000005" as="sourcePoint" />
            <mxPoint x="280" y="50" as="targetPoint" />
          </mxGeometry>
        </mxCell>
        <mxCell id="LJhHwREd3p5r8z2Calfl-22" value="" style="endArrow=none;html=1;entryX=0.503;entryY=1.08;entryDx=0;entryDy=0;entryPerimeter=0;exitX=0.5;exitY=0;exitDx=0;exitDy=0;" edge="1" parent="1" source="LJhHwREd3p5r8z2Calfl-17">
          <mxGeometry width="50" height="50" relative="1" as="geometry">
            <mxPoint x="290" y="165" as="sourcePoint" />
            <mxPoint x="330.3599999999999" y="140.00000000000006" as="targetPoint" />
          </mxGeometry>
        </mxCell>
        <mxCell id="LJhHwREd3p5r8z2Calfl-23" value="CONTENT" style="ellipse;whiteSpace=wrap;html=1;" vertex="1" parent="1">
          <mxGeometry x="340" y="170" width="80" height="30" as="geometry" />
        </mxCell>
        <mxCell id="LJhHwREd3p5r8z2Calfl-24" value="" style="endArrow=none;html=1;entryX=0.5;entryY=1;entryDx=0;entryDy=0;exitX=0.591;exitY=0.022;exitDx=0;exitDy=0;exitPerimeter=0;" edge="1" parent="1" source="LJhHwREd3p5r8z2Calfl-23" target="LJhHwREd3p5r8z2Calfl-3">
          <mxGeometry width="50" height="50" relative="1" as="geometry">
            <mxPoint x="385" y="167" as="sourcePoint" />
            <mxPoint x="340.3599999999997" y="150" as="targetPoint" />
            <Array as="points" />
          </mxGeometry>
        </mxCell>
        <mxCell id="LJhHwREd3p5r8z2Calfl-25" value="SUPER ADMIN" style="rounded=0;whiteSpace=wrap;html=1;" vertex="1" parent="1">
          <mxGeometry x="-60" y="310" width="120" height="60" as="geometry" />
        </mxCell>
        <mxCell id="LJhHwREd3p5r8z2Calfl-26" value="" style="rhombus;whiteSpace=wrap;html=1;" vertex="1" parent="1">
          <mxGeometry x="100" y="300" width="130" height="80" as="geometry" />
        </mxCell>
        <mxCell id="LJhHwREd3p5r8z2Calfl-27" value="USERS" style="rounded=0;whiteSpace=wrap;html=1;" vertex="1" parent="1">
          <mxGeometry x="270" y="310" width="120" height="60" as="geometry" />
        </mxCell>
        <mxCell id="LJhHwREd3p5r8z2Calfl-28" value="" style="endArrow=none;html=1;entryX=0;entryY=0.5;entryDx=0;entryDy=0;" edge="1" parent="1" target="LJhHwREd3p5r8z2Calfl-26">
          <mxGeometry width="50" height="50" relative="1" as="geometry">
            <mxPoint x="60.00000000000023" y="339.65999999999997" as="sourcePoint" />
            <mxPoint x="130" y="339.65999999999997" as="targetPoint" />
          </mxGeometry>
        </mxCell>
        <mxCell id="LJhHwREd3p5r8z2Calfl-29" value="" style="endArrow=none;html=1;entryX=0;entryY=0.5;entryDx=0;entryDy=0;" edge="1" parent="1">
          <mxGeometry width="50" height="50" relative="1" as="geometry">
            <mxPoint x="230.00000000000023" y="339.6600000000001" as="sourcePoint" />
            <mxPoint x="270.0000000000002" y="340" as="targetPoint" />
          </mxGeometry>
        </mxCell>
        <mxCell id="LJhHwREd3p5r8z2Calfl-30" value="CREATES" style="text;html=1;strokeColor=none;fillColor=none;align=center;verticalAlign=middle;whiteSpace=wrap;rounded=0;" vertex="1" parent="1">
          <mxGeometry x="145" y="330" width="40" height="20" as="geometry" />
        </mxCell>
        <mxCell id="LJhHwREd3p5r8z2Calfl-33" value="NAME" style="ellipse;whiteSpace=wrap;html=1;" vertex="1" parent="1">
          <mxGeometry x="240" y="400" width="80" height="30" as="geometry" />
        </mxCell>
        <mxCell id="LJhHwREd3p5r8z2Calfl-36" value="" style="endArrow=none;html=1;entryX=0.503;entryY=1.08;entryDx=0;entryDy=0;entryPerimeter=0;exitX=0.5;exitY=0;exitDx=0;exitDy=0;" edge="1" parent="1" source="LJhHwREd3p5r8z2Calfl-33">
          <mxGeometry width="50" height="50" relative="1" as="geometry">
            <mxPoint x="290" y="395" as="sourcePoint" />
            <mxPoint x="330.3599999999997" y="370" as="targetPoint" />
          </mxGeometry>
        </mxCell>
        <mxCell id="LJhHwREd3p5r8z2Calfl-37" value="EMAIL" style="ellipse;whiteSpace=wrap;html=1;" vertex="1" parent="1">
          <mxGeometry x="340" y="400" width="80" height="30" as="geometry" />
        </mxCell>
        <mxCell id="LJhHwREd3p5r8z2Calfl-38" value="" style="endArrow=none;html=1;entryX=0.5;entryY=1;entryDx=0;entryDy=0;exitX=0.591;exitY=0.022;exitDx=0;exitDy=0;exitPerimeter=0;" edge="1" parent="1" source="LJhHwREd3p5r8z2Calfl-37" target="LJhHwREd3p5r8z2Calfl-27">
          <mxGeometry width="50" height="50" relative="1" as="geometry">
            <mxPoint x="385" y="397" as="sourcePoint" />
            <mxPoint x="340.3599999999997" y="380" as="targetPoint" />
            <Array as="points" />
          </mxGeometry>
        </mxCell>
        <mxCell id="LJhHwREd3p5r8z2Calfl-39" value="PASSWORD" style="ellipse;whiteSpace=wrap;html=1;" vertex="1" parent="1">
          <mxGeometry x="290" y="440" width="80" height="30" as="geometry" />
        </mxCell>
        <mxCell id="LJhHwREd3p5r8z2Calfl-40" value="" style="endArrow=none;html=1;" edge="1" parent="1">
          <mxGeometry width="50" height="50" relative="1" as="geometry">
            <mxPoint x="330" y="440" as="sourcePoint" />
            <mxPoint x="330" y="370" as="targetPoint" />
          </mxGeometry>
        </mxCell>
        <mxCell id="LJhHwREd3p5r8z2Calfl-41" value="VIEWS" style="rhombus;whiteSpace=wrap;html=1;" vertex="1" parent="1">
          <mxGeometry x="265" y="210" width="130" height="80" as="geometry" />
        </mxCell>
        <mxCell id="LJhHwREd3p5r8z2Calfl-42" value="" style="endArrow=none;html=1;" edge="1" parent="1">
          <mxGeometry width="50" height="50" relative="1" as="geometry">
            <mxPoint x="330" y="210" as="sourcePoint" />
            <mxPoint x="330" y="140" as="targetPoint" />
          </mxGeometry>
        </mxCell>
        <mxCell id="LJhHwREd3p5r8z2Calfl-43" value="" style="endArrow=none;html=1;" edge="1" parent="1">
          <mxGeometry width="50" height="50" relative="1" as="geometry">
            <mxPoint x="330" y="310" as="sourcePoint" />
            <mxPoint x="330" y="290" as="targetPoint" />
          </mxGeometry>
        </mxCell>
        <mxCell id="LJhHwREd3p5r8z2Calfl-45" value="NAME" style="ellipse;whiteSpace=wrap;html=1;" vertex="1" parent="1">
          <mxGeometry x="-70" y="400" width="80" height="30" as="geometry" />
        </mxCell>
        <mxCell id="LJhHwREd3p5r8z2Calfl-46" value="" style="endArrow=none;html=1;entryX=0.503;entryY=1.08;entryDx=0;entryDy=0;entryPerimeter=0;exitX=0.5;exitY=0;exitDx=0;exitDy=0;" edge="1" parent="1" source="LJhHwREd3p5r8z2Calfl-45">
          <mxGeometry width="50" height="50" relative="1" as="geometry">
            <mxPoint x="-20" y="395" as="sourcePoint" />
            <mxPoint x="20.359999999999673" y="370" as="targetPoint" />
          </mxGeometry>
        </mxCell>
        <mxCell id="LJhHwREd3p5r8z2Calfl-47" value="EMAIL" style="ellipse;whiteSpace=wrap;html=1;" vertex="1" parent="1">
          <mxGeometry x="30" y="400" width="80" height="30" as="geometry" />
        </mxCell>
        <mxCell id="LJhHwREd3p5r8z2Calfl-48" value="" style="endArrow=none;html=1;entryX=0.5;entryY=1;entryDx=0;entryDy=0;exitX=0.591;exitY=0.022;exitDx=0;exitDy=0;exitPerimeter=0;" edge="1" parent="1" source="LJhHwREd3p5r8z2Calfl-47">
          <mxGeometry width="50" height="50" relative="1" as="geometry">
            <mxPoint x="75" y="397" as="sourcePoint" />
            <mxPoint x="20" y="370" as="targetPoint" />
            <Array as="points" />
          </mxGeometry>
        </mxCell>
        <mxCell id="LJhHwREd3p5r8z2Calfl-49" value="PASSWORD" style="ellipse;whiteSpace=wrap;html=1;" vertex="1" parent="1">
          <mxGeometry x="-20" y="440" width="80" height="30" as="geometry" />
        </mxCell>
        <mxCell id="LJhHwREd3p5r8z2Calfl-50" value="" style="endArrow=none;html=1;" edge="1" parent="1">
          <mxGeometry width="50" height="50" relative="1" as="geometry">
            <mxPoint x="20" y="440" as="sourcePoint" />
            <mxPoint x="20" y="370" as="targetPoint" />
          </mxGeometry>
        </mxCell>
      </root>
    </mxGraphModel>
  </diagram>
</mxfile>
